<svg width="39" height="26" viewBox="0 0 39 26" fill="none" xmlns="http://www.w3.org/2000/svg">
  <path d="M1.66172 0.385986H36.6438C36.867 0.390407 37.0872 0.439022 37.2917 0.528564C37.4963 0.618107 37.6812 0.746933 37.8359 0.907959C37.9906 1.06898 38.1122 1.25906 38.1935 1.46704C38.2748 1.67502 38.3142 1.8971 38.3097 2.12036V23.7961C38.3185 24.2469 38.148 24.6826 37.8356 25.0076C37.5231 25.3326 37.0945 25.5201 36.6438 25.5291H1.66172C1.211 25.5201 0.782255 25.3326 0.469829 25.0076C0.157403 24.6826 -0.0131316 24.2469 -0.00429216 23.7961V2.12036C-0.008802 1.8971 0.0307491 1.67502 0.112041 1.46704C0.193333 1.25906 0.314752 1.06898 0.469463 0.907959C0.624174 0.746933 0.809087 0.618107 1.01365 0.528564C1.21822 0.439022 1.43846 0.390407 1.66172 0.385986Z" fill="#353A40" />
  <path d="M22.6847 16.9503C22.4203 16.8159 22.2029 16.6042 22.0608 16.3439C21.8904 16.0252 21.8075 15.6674 21.8208 15.3063C21.8061 15.0601 21.8404 14.8135 21.9218 14.5807C22.0031 14.3479 22.13 14.1337 22.2948 13.9503C22.47 13.7834 22.6777 13.6542 22.9049 13.5709C23.1322 13.4877 23.3741 13.4517 23.6157 13.466C23.8592 13.4503 24.1033 13.4845 24.333 13.5665C24.5627 13.6486 24.7733 13.7767 24.9518 13.943C25.1151 14.123 25.2406 14.3338 25.3212 14.5631C25.4017 14.7924 25.4356 15.0354 25.4208 15.278C25.4356 15.6296 25.367 15.9798 25.2207 16.2999C25.0885 16.5605 24.8827 16.7765 24.6288 16.921C24.3314 17.0783 23.9979 17.155 23.6617 17.1432C23.3255 17.1553 22.991 17.0894 22.6847 16.9503ZM23.0907 14.5333C22.9618 14.7717 22.8943 15.0382 22.8943 15.3092C22.8943 15.5802 22.9618 15.8468 23.0907 16.0851C23.1587 16.1589 23.2413 16.2176 23.3333 16.2579C23.4252 16.2982 23.5244 16.3195 23.6248 16.3195C23.7251 16.3195 23.8243 16.2982 23.9163 16.2579C24.0082 16.2176 24.0907 16.1589 24.1587 16.0851C24.3103 15.8378 24.377 15.5476 24.3488 15.2589C24.3703 14.9984 24.2995 14.7387 24.1488 14.525C24.0827 14.4485 24.0001 14.3883 23.9072 14.3483C23.8144 14.3083 23.7138 14.2896 23.6128 14.2941C23.5133 14.2913 23.4145 14.3112 23.324 14.3527C23.2335 14.3941 23.1536 14.4562 23.0907 14.5333ZM13.1787 17.1071C13.0044 17.0899 12.8349 17.0404 12.6787 16.9611C12.5371 16.8838 12.4122 16.7794 12.3108 16.6539C12.207 16.5349 12.129 16.396 12.0818 16.2452C12.0204 16.0509 11.9868 15.8489 11.9818 15.6451V13.527H13.0527V15.695C13.0479 15.7774 13.0595 15.8602 13.0868 15.9381C13.1141 16.016 13.1566 16.0876 13.2118 16.1491C13.3331 16.2533 13.4877 16.3107 13.6477 16.3107C13.8077 16.3107 13.9624 16.2533 14.0837 16.1491C14.1389 16.087 14.1813 16.0146 14.2084 15.9362C14.2355 15.8577 14.2468 15.7749 14.2417 15.692V13.5241H15.3127V15.6422C15.3133 15.8464 15.2795 16.0493 15.2128 16.2423C15.1511 16.4259 15.0485 16.5929 14.9127 16.7311C14.793 16.8617 14.6459 16.9639 14.4818 17.0309C14.2406 17.1149 13.9861 17.155 13.7307 17.1491C13.5464 17.1454 13.3625 17.1311 13.1798 17.1061L13.1787 17.1071ZM28.3177 17.0831L27.0177 15.131V17.0831H26.0077V13.528H27.0077L28.3168 15.4943V13.528H29.3287V17.0831H28.3177ZM18.3397 17.0831L17.0398 15.131V17.0831H16.0298V13.528H17.0298L18.3378 15.4943V13.528H19.3497V17.0831H18.3397ZM20.1097 17.0739V13.525H21.1897V17.0739H20.1097ZM11.9048 12.0929C11.6733 11.853 11.5358 11.5381 11.5177 11.2052L12.5398 11.1403C12.5505 11.2789 12.5965 11.4122 12.6737 11.528C12.7294 11.5996 12.8016 11.6567 12.8842 11.6945C12.9667 11.7322 13.0571 11.7499 13.1477 11.7452C13.2757 11.7538 13.4024 11.7139 13.5028 11.6339C13.5404 11.6042 13.5708 11.5666 13.5919 11.5236C13.613 11.4806 13.6243 11.4333 13.6249 11.3854C13.6255 11.3375 13.6153 11.2902 13.5952 11.2467C13.5751 11.2032 13.5456 11.1646 13.5088 11.1339C13.3426 11.0262 13.1548 10.9558 12.9587 10.9279C12.5933 10.8667 12.248 10.7189 11.9518 10.4962C11.8541 10.4112 11.7765 10.3053 11.7246 10.1867C11.6727 10.068 11.6479 9.93961 11.6517 9.81019C11.6522 9.62648 11.7061 9.44677 11.8068 9.2931C11.9207 9.12168 12.0834 8.98847 12.2738 8.91029C12.5463 8.80593 12.8373 8.75846 13.1288 8.77113C13.4857 8.74732 13.8411 8.83607 14.1448 9.02503C14.2673 9.12197 14.3677 9.24414 14.4395 9.38294C14.5112 9.52175 14.5526 9.67418 14.5608 9.83021L13.5487 9.89124C13.5355 9.75836 13.4753 9.63447 13.3788 9.54212C13.2767 9.46419 13.1499 9.42562 13.0217 9.43324C12.9211 9.4259 12.8212 9.45467 12.7397 9.51429C12.7098 9.53824 12.6856 9.56851 12.6692 9.60316C12.6527 9.63781 12.6444 9.67564 12.6448 9.714C12.6456 9.74394 12.6531 9.77328 12.6667 9.79994C12.6804 9.82659 12.6999 9.85018 12.7238 9.86829C12.833 9.93783 12.9562 9.98212 13.0847 9.99818C13.4323 10.0625 13.771 10.1679 14.0938 10.3121C14.2757 10.3994 14.4293 10.5363 14.5367 10.7072C14.6296 10.8664 14.6774 11.0478 14.6748 11.2321C14.676 11.4559 14.6117 11.6752 14.4897 11.8629C14.3643 12.0567 14.1845 12.2091 13.9728 12.3009C13.7075 12.408 13.4227 12.4591 13.1367 12.4503C12.6951 12.4965 12.2529 12.3676 11.9048 12.0919V12.0929ZM28.3187 12.3829L27.0188 10.4303V12.3829H26.0088V8.82826H27.0088L28.3177 10.7951V8.82826H29.3297V12.3829H28.3187ZM24.4437 12.3829L23.8698 11.296C23.8236 11.193 23.7573 11.1002 23.6748 11.0231C23.5979 10.9681 23.5054 10.939 23.4108 10.9401H23.3158V12.3829H22.2367V8.82826H24.0258C24.2824 8.81818 24.539 8.84744 24.7867 8.91517C24.9607 8.972 25.1105 9.08555 25.2118 9.23792C25.323 9.409 25.3792 9.61017 25.3728 9.8141C25.3773 9.99226 25.3348 10.1687 25.2498 10.3253C25.1673 10.4677 25.0505 10.5867 24.9098 10.672C24.7923 10.7388 24.665 10.7868 24.5327 10.8141C24.6319 10.8434 24.7263 10.8871 24.8127 10.944C24.877 10.9996 24.9344 11.0627 24.9838 11.132C25.0408 11.2004 25.0914 11.2743 25.1348 11.3522L25.6548 12.3829H24.4437ZM23.3168 10.2672H23.7698C23.8658 10.2603 23.9608 10.2439 24.0537 10.2189C24.1234 10.2046 24.1854 10.1652 24.2278 10.108C24.2729 10.0485 24.2968 9.97566 24.2958 9.90101C24.2989 9.85165 24.2909 9.80234 24.2723 9.75648C24.2538 9.71062 24.2252 9.66924 24.1887 9.63587C24.069 9.56233 23.9284 9.53052 23.7887 9.54505H23.3168V10.2672ZM18.7168 12.3829V8.82826H21.5947V9.58704H19.7948V10.152H21.4668V10.8781H19.7948V11.5783H21.6498V12.3829H18.7168ZM16.0647 12.3829V9.70619H14.9697V8.82826H18.2347V9.70619H17.1348V12.3829H16.0647ZM8.19971 12.3829V8.82826H11.0778V9.58704H9.27771V10.152H10.9487V10.8781H9.26978V11.5783H11.1228V12.3829H8.19971ZM6.03271 12.3829L5.42371 10.1442L4.81677 12.3829H3.76379L2.99072 8.82826H4.01074L4.37781 10.818L4.91577 8.82826H5.93176L6.4707 10.816L6.83777 8.82826H7.85278L7.08679 12.3829H6.03271Z" fill="#ECD345" />
  <path d="M34.1199 17.1453V8.76538H35.3198V17.1453H34.1199ZM31.1299 17.1453V8.76538H32.3298V17.1453H31.1299Z" fill="#ECD345" />
</svg>