<svg width="52" height="52" viewBox="0 0 52 52" fill="none" xmlns="http://www.w3.org/2000/svg">
  <g opacity="0.25">
    <path opacity="0.25" d="M26.3862 50.423C39.9172 50.423 50.8862 39.4539 50.8862 25.923C50.8862 12.392 39.9172 1.42297 26.3862 1.42297C12.8553 1.42297 1.88623 12.392 1.88623 25.923C1.88623 39.4539 12.8553 50.423 26.3862 50.423Z" stroke="#33A0FF" stroke-width="2" />
  </g>
  <path fill-rule="evenodd" clip-rule="evenodd" d="M32.4402 28.878C32.9543 28.8773 33.4522 28.6982 33.849 28.3715C34.2458 28.0447 34.517 27.5904 34.6163 27.086L35.7313 21.513C35.7958 21.19 35.788 20.8567 35.7084 20.5371C35.6288 20.2175 35.4793 19.9195 35.2707 19.6646C35.0622 19.4097 34.7997 19.2041 34.5022 19.0627C34.2048 18.9214 33.8796 18.8477 33.5503 18.847H22.4502V17.732C22.45 17.4371 22.333 17.1544 22.1247 16.9456C21.9165 16.7368 21.6341 16.619 21.3393 16.618H19.1243C18.8345 16.6267 18.5594 16.7479 18.3575 16.9559C18.1556 17.164 18.0427 17.4425 18.0427 17.7325C18.0427 18.0224 18.1556 18.301 18.3575 18.509C18.5594 18.7171 18.8345 18.8383 19.1243 18.847H20.2392V29.992C19.798 29.99 19.366 30.1191 18.9982 30.3628C18.6303 30.6065 18.3431 30.9539 18.1728 31.361C18.0026 31.7681 17.957 32.2166 18.0419 32.6497C18.1267 33.0827 18.3382 33.4808 18.6496 33.7936C18.9609 34.1063 19.358 34.3196 19.7907 34.4064C20.2234 34.4932 20.672 34.4497 21.0799 34.2812C21.4878 34.1128 21.8365 33.8272 22.0819 33.4604C22.3273 33.0936 22.4582 32.6623 22.4582 32.221H30.2243C30.226 32.6597 30.3577 33.088 30.6027 33.4519C30.8478 33.8158 31.1951 34.0989 31.6009 34.2656C32.0067 34.4322 32.4528 34.4749 32.8828 34.3882C33.3129 34.3016 33.7076 34.0894 34.0172 33.7786C34.3267 33.4677 34.5373 33.0722 34.6222 32.6418C34.7072 32.2114 34.6627 31.7655 34.4944 31.3604C34.3261 30.9552 34.0416 30.609 33.6767 30.3655C33.3118 30.1219 32.883 29.992 32.4443 29.992H22.4573V28.878H32.4402ZM33.5553 21.078L32.4402 26.651H22.4532V21.078H33.5532H33.5553Z" fill="#33A0FF" />
</svg>