<svg width="28" height="10" viewBox="0 0 28 10" fill="none" xmlns="http://www.w3.org/2000/svg">
  <path d="M25.0696 9.41431L24.8176 8.11938H22.0836L21.6346 9.41431H19.3926L22.5996 1.34937C22.6742 1.14937 22.8108 0.978347 22.9895 0.861572C23.1682 0.744798 23.3795 0.688479 23.5927 0.700439H25.3217L27.0436 9.41528L25.0696 9.41431ZM23.8336 3.07007L22.7036 6.3313H24.4696L23.8336 3.07007ZM16.5466 3.18433C16.5466 4.13633 19.5466 4.34005 19.5466 6.52905C19.5466 8.63705 17.3316 9.41235 15.8646 9.41235C15.0308 9.42614 14.2035 9.26387 13.4366 8.93628L13.7566 7.04614C14.6366 7.76614 17.3057 7.97137 17.3057 6.82837C17.3057 5.68537 14.3307 5.65818 14.3307 3.48218C14.3307 1.17018 16.8647 0.694092 17.9307 0.694092C18.5909 0.711019 19.244 0.83515 19.8646 1.06128L19.5576 2.87036C18.6396 2.35836 16.5447 2.23623 16.5447 3.18823L16.5466 3.18433ZM9.96265 9.41431L11.3066 0.698975H13.4576L12.1136 9.41431H9.96265ZM4.80566 9.41431L2.93958 1.85229C3.26923 2.05819 3.58374 2.28748 3.88062 2.53833C4.77763 3.30592 5.46015 4.29281 5.86157 5.40308L6.10461 6.69409L8.15564 0.700439H10.4706L7.04858 9.41528L4.80566 9.41431ZM1.0116 0.938232L0.911621 0.908447L1.0116 0.938232ZM0.791626 0.873291L0.743652 0.860107L0.791626 0.873291ZM1.32068 1.04321L1.19263 0.998291L1.32068 1.04321ZM2.81165 1.76831C2.74498 1.72698 2.67824 1.68717 2.61157 1.64917C2.67557 1.69317 2.74157 1.73119 2.80957 1.77319L2.81165 1.76831ZM2.29761 1.47827C2.23961 1.44827 2.17968 1.41643 2.12268 1.38843C2.17768 1.42143 2.23665 1.45315 2.29565 1.48315L2.29761 1.47827ZM1.76257 1.22144L1.64465 1.17017L1.76257 1.22144Z" fill="#494CA3" />
</svg>